<?xml version="1.0" standalone="no"?>
<!DOCTYPE svg PUBLIC "-//W3C//DTD SVG 20010904//EN"
 "http://www.w3.org/TR/2001/REC-SVG-20010904/DTD/svg10.dtd">
<svg version="1.0" xmlns="http://www.w3.org/2000/svg"
 width="1041.000000pt" height="1041.000000pt" viewBox="0 0 1041.000000 1041.000000"
 preserveAspectRatio="xMidYMid meet">
<metadata>
Created by potrace 1.14, written by Peter Selinger 2001-2017
</metadata>
<g transform="translate(0.000000,1041.000000) scale(0.100000,-0.100000)"
fill="#000000" stroke="none">
<path d="M2126 6808 c3 -4 1 -8 -4 -8 -6 0 -9 -127 -9 -319 0 -299 1 -319 18
-330 11 -6 19 -8 19 -3 0 11 39 12 45 1 4 -5 11 -6 18 -2 15 9 698 10 704 0 2
-4 9 -5 14 -1 19 11 58 14 64 4 4 -6 13 -7 23 -2 9 4 86 8 171 7 160 -1 184
-8 139 -39 -12 -9 -19 -16 -15 -16 5 0 1 -7 -7 -16 -9 -8 -14 -20 -11 -25 4
-5 2 -9 -3 -9 -5 0 -39 -43 -76 -95 -38 -53 -74 -102 -82 -110 -8 -7 -14 -17
-14 -22 0 -4 -10 -20 -23 -35 -25 -31 -297 -410 -312 -436 -5 -9 -12 -19 -15
-22 -12 -11 -80 -108 -80 -114 0 -3 18 -5 41 -3 22 2 42 0 45 -5 3 -5 10 -6
16 -2 9 6 120 9 143 4 6 -1 15 -1 20 0 13 3 127 3 140 0 6 -1 15 -1 20 0 37 9
242 -6 278 -19 15 -6 27 -8 27 -6 0 3 17 -3 39 -14 21 -11 41 -17 45 -14 3 4
6 1 6 -5 0 -7 5 -12 11 -12 22 0 128 -81 177 -135 28 -32 66 -87 84 -124 18
-36 36 -68 39 -71 7 -5 -19 -43 -190 -280 -42 -57 -76 -107 -76 -110 0 -3 -6
-12 -13 -20 -20 -23 -114 -151 -158 -217 -21 -32 -45 -62 -51 -66 -7 -4 -13
-12 -13 -18 0 -5 -5 -15 -10 -22 -6 -7 -23 -30 -39 -53 -26 -36 -33 -41 -65
-39 -199 14 -377 119 -484 288 -31 49 -69 139 -78 182 -2 11 -6 31 -9 45 -2
14 -6 41 -7 61 l-2 35 -325 -1 c-179 -1 -329 -3 -333 -4 -4 0 -5 -7 -3 -13 2
-7 6 -40 9 -73 6 -71 15 -134 21 -155 2 -8 7 -30 10 -49 3 -19 10 -42 15 -51
5 -10 6 -20 3 -24 -3 -3 -1 -6 4 -6 6 0 10 -8 9 -17 -2 -10 1 -25 5 -33 25
-48 99 -210 99 -216 0 -4 9 -15 21 -25 11 -9 20 -21 20 -26 0 -18 116 -160
186 -225 31 -29 62 -59 69 -65 7 -7 17 -13 23 -13 6 0 11 -3 11 -7 0 -9 145
-105 157 -105 4 0 15 -5 23 -12 19 -16 111 -59 128 -59 6 0 12 -3 12 -7 0 -5
87 -33 115 -36 6 0 17 -3 25 -7 27 -10 131 -30 160 -30 8 0 18 -5 22 -11 6 -8
8 -8 8 0 0 8 11 10 33 5 52 -10 268 2 325 18 17 5 32 7 32 4 0 -3 6 0 13 6 8
6 16 9 19 6 3 -3 45 9 94 26 49 17 95 31 102 32 6 0 12 4 12 8 0 4 15 13 34
19 45 14 194 108 260 163 105 87 215 211 277 314 l37 59 417 0 c409 -1 418 -1
425 -21 4 -11 3 -28 -2 -37 -5 -10 -5 -18 -1 -18 4 0 7 -26 6 -57 0 -32 -2
-58 -3 -58 -5 0 -6 -46 0 -50 8 -5 6 -48 -3 -62 -4 -7 -4 -14 0 -16 7 -4 9
-112 3 -112 -1 0 -3 -10 -4 -22 -2 -13 0 -23 3 -23 8 0 6 -54 -3 -68 -3 -6 -3
-13 1 -15 7 -4 9 -112 3 -112 -5 0 -6 -46 0 -50 8 -5 6 -48 -3 -62 -4 -7 -4
-14 0 -16 7 -4 9 -112 3 -112 -1 0 -3 -10 -4 -22 -2 -13 0 -23 3 -23 3 0 5
-26 5 -58 l-2 -59 329 0 329 0 0 866 -1 866 -664 -1 c-366 -1 -665 2 -665 5 0
3 23 38 50 76 28 39 58 81 68 95 9 14 30 44 47 66 16 23 38 52 47 65 9 13 42
60 74 104 31 44 77 109 102 145 25 36 59 84 76 106 17 23 37 50 44 60 53 79
178 250 186 256 7 5 7 8 1 8 -6 0 -6 3 1 8 5 4 58 75 117 157 58 83 110 155
114 160 31 38 83 117 83 124 0 5 3 11 8 13 10 4 72 84 72 93 0 3 6 13 13 20 6
8 17 20 22 27 12 14 97 137 107 154 5 8 -107 11 -395 11 l-402 0 -65 -93 c-36
-51 -68 -93 -72 -94 -5 0 -8 -5 -8 -10 0 -11 -10 -24 -42 -61 -10 -10 -16 -19
-12 -19 5 0 -44 -69 -57 -80 -3 -3 -25 -34 -49 -70 -24 -36 -52 -73 -62 -82
-11 -9 -19 -20 -19 -25 0 -4 -25 -41 -55 -81 -30 -40 -54 -75 -54 -78 0 -3 -6
-11 -12 -18 -7 -8 -20 -24 -28 -36 -8 -12 -41 -58 -72 -101 -32 -44 -58 -81
-58 -84 0 -3 -7 -13 -15 -22 -8 -10 -21 -27 -29 -38 -14 -19 -16 -19 -50 18
-20 20 -36 42 -36 49 0 6 -3 8 -7 5 -3 -4 -15 5 -25 20 -10 16 -18 24 -18 20
0 -4 -15 7 -34 25 -19 18 -49 44 -67 58 -18 14 -38 30 -45 37 -6 7 -14 9 -18
6 -3 -4 -6 -1 -6 5 0 7 -7 12 -15 12 -8 0 -15 5 -15 10 0 6 -5 10 -10 10 -6 0
-22 7 -35 16 l-25 16 57 82 c31 44 60 83 64 84 5 2 9 8 9 13 0 6 4 15 10 22
46 57 60 76 60 85 0 6 3 12 8 14 4 2 30 35 57 73 27 39 54 73 59 77 7 5 7 8 1
8 -5 0 -2 5 8 11 9 5 17 16 17 23 0 8 7 17 16 20 9 4 14 9 11 13 -4 3 3 14 15
24 11 11 18 19 14 19 -4 0 -1 7 6 15 30 33 38 45 38 55 0 5 4 10 8 10 4 0 16
15 27 33 10 17 24 38 31 44 7 7 22 28 34 48 12 19 26 35 31 35 5 0 9 9 9 20 0
11 3 20 8 20 4 0 34 39 67 86 54 76 75 105 103 139 5 6 7 16 4 23 -3 10 -7 10
-18 1 -8 -6 -14 -7 -14 -2 0 5 -7 10 -15 10 -8 0 -15 -5 -15 -11 0 -7 -3 -7
-8 -1 -9 13 -42 16 -42 3 0 -5 -5 -6 -12 -2 -18 12 -58 11 -58 -1 0 -6 -3 -7
-8 0 -8 12 -32 13 -49 2 -7 -5 -13 -4 -13 0 0 13 -83 10 -92 -2 -5 -6 -8 -6
-8 1 0 12 -29 12 -48 0 -6 -4 -12 -3 -12 3 0 10 -31 7 -50 -4 -6 -3 -10 -2
-10 3 0 5 -7 9 -15 9 -8 0 -15 -5 -15 -10 0 -5 -6 -5 -13 2 -10 8 -17 7 -25
-1 -7 -7 -12 -8 -12 -2 0 5 -9 10 -20 10 -11 0 -20 -4 -20 -9 0 -4 -6 -5 -12
0 -19 11 -37 12 -44 2 -3 -5 -13 -5 -25 1 -12 7 -19 7 -19 1 0 -7 -9 -7 -25
-1 -17 7 -25 6 -25 -1 0 -8 -4 -8 -13 0 -10 8 -17 7 -25 -1 -7 -7 -12 -8 -12
-2 0 5 -9 10 -20 10 -11 0 -20 -4 -20 -9 0 -4 -6 -5 -12 0 -19 11 -37 12 -44
2 -3 -5 -13 -5 -24 1 -13 7 -20 6 -23 -3 -4 -8 -8 -8 -14 -2 -12 14 -33 17
-33 4 0 -8 -4 -8 -13 0 -10 8 -17 7 -25 -1 -7 -7 -12 -8 -12 -2 0 5 -9 10 -20
10 -11 0 -20 -4 -20 -9 0 -4 -5 -5 -12 -1 -18 12 -58 11 -58 -1 0 -6 -3 -7 -8
0 -8 12 -32 13 -49 2 -7 -5 -13 -4 -13 0 0 13 -83 10 -92 -2 -5 -6 -8 -6 -8 1
0 12 -29 12 -48 0 -6 -4 -12 -3 -12 3 0 10 -31 7 -50 -4 -6 -3 -10 -2 -10 3 0
5 -7 9 -15 9 -8 0 -15 -5 -15 -10 0 -5 -6 -5 -13 2 -10 8 -17 7 -25 -1 -7 -7
-12 -8 -12 -2 0 5 -9 10 -20 10 -11 0 -20 -4 -20 -9 0 -4 -6 -5 -12 0 -19 11
-37 12 -44 2 -3 -5 -13 -5 -25 1 -12 7 -19 7 -19 1 0 -7 -9 -7 -25 -1 -17 7
-25 6 -25 -1 0 -8 -4 -8 -13 0 -10 8 -17 7 -25 -1 -7 -7 -12 -8 -12 -2 0 5 -9
10 -20 10 -11 0 -20 -4 -20 -9 0 -4 -6 -5 -12 0 -19 11 -37 12 -44 2 -3 -5
-13 -5 -24 1 -13 7 -20 6 -23 -3 -4 -8 -8 -8 -14 -2 -12 14 -33 17 -33 4 0 -8
-4 -8 -13 0 -10 8 -17 7 -25 -1 -7 -7 -12 -8 -12 -2 0 5 -9 10 -20 10 -11 0
-20 -4 -20 -9 0 -5 -7 -4 -15 3 -12 10 -15 10 -15 -1 0 -9 -3 -10 -8 -4 -10
14 -32 17 -32 4 0 -8 -4 -8 -13 0 -10 8 -17 7 -25 -1 -7 -7 -12 -8 -12 -2 0 5
-9 10 -20 10 -11 0 -20 -4 -20 -9 0 -4 -6 -5 -12 0 -19 11 -37 12 -44 2 -3 -5
-13 -5 -25 1 -12 7 -19 7 -19 1 0 -7 -9 -7 -25 -1 -17 7 -25 6 -25 -1 0 -8 -4
-8 -13 0 -10 8 -17 7 -25 -1 -7 -7 -12 -8 -12 -2 0 5 -9 10 -20 10 -11 0 -20
-4 -20 -9 0 -4 -6 -5 -12 0 -17 10 -58 11 -52 1z"/>
<path d="M9299 6430 c-8 -4 -31 -7 -52 -6 -20 0 -37 -3 -37 -7 0 -5 -4 -6 -9
-3 -5 4 -21 2 -35 -4 -18 -6 -26 -6 -26 1 0 6 -6 7 -12 2 -7 -4 -17 -8 -23
-10 -5 -1 -21 -4 -35 -7 -84 -19 -282 -101 -300 -125 -3 -3 -17 -14 -32 -24
-46 -29 -117 -99 -156 -152 -20 -27 -40 -51 -44 -53 -5 -2 -8 -8 -8 -13 0 -4
-11 -32 -24 -61 -42 -93 -46 -106 -63 -218 -10 -64 -10 -193 0 -206 4 -7 7
-16 5 -20 -3 -12 12 -86 20 -99 4 -5 7 -14 8 -20 2 -21 37 -95 46 -95 4 0 8
-7 8 -15 0 -8 5 -15 10 -15 6 0 10 -6 10 -12 0 -15 138 -148 153 -148 6 0 18
-6 26 -14 17 -15 120 -72 136 -76 17 -4 39 -11 60 -20 58 -24 136 -49 180 -60
28 -7 57 -15 65 -18 8 -3 23 -6 33 -7 9 -2 19 -4 22 -5 3 -1 10 -4 15 -5 6 -1
11 -3 13 -5 1 -1 16 -4 32 -6 17 -3 73 -16 125 -30 52 -14 102 -26 110 -28 69
-17 130 -39 130 -48 0 -5 6 -8 13 -5 16 6 67 -51 69 -77 5 -65 -21 -116 -72
-145 -91 -51 -266 -59 -423 -20 -23 5 -51 11 -62 13 -11 2 -20 4 -20 5 0 2 -7
4 -15 6 -8 1 -33 10 -55 19 -22 10 -41 17 -43 16 -2 0 -54 27 -163 85 -11 5
-19 13 -19 17 0 5 -6 8 -12 8 -7 0 -44 25 -81 55 -66 54 -68 55 -90 39 -12 -9
-41 -42 -65 -73 -23 -31 -61 -76 -82 -100 -22 -24 -40 -45 -40 -48 0 -2 -9
-14 -21 -26 -11 -12 -30 -35 -42 -50 -12 -15 -35 -42 -51 -60 -62 -71 -63 -74
-23 -110 78 -69 121 -102 138 -109 11 -4 19 -12 19 -18 0 -6 4 -9 9 -5 5 3 15
-1 23 -8 7 -8 25 -20 40 -28 59 -32 196 -99 202 -99 4 0 23 -7 44 -17 20 -9
39 -17 42 -17 23 -6 108 -29 120 -33 36 -14 155 -36 265 -49 75 -10 270 -10
283 -1 8 6 12 5 12 -2 0 -7 5 -9 12 -5 7 4 30 9 53 10 22 1 40 3 40 4 0 2 23
7 73 14 23 4 60 13 82 21 22 8 40 12 40 8 0 -3 6 -1 13 5 7 6 24 13 38 15 62
12 239 124 302 192 47 50 118 156 112 166 -4 5 -2 9 3 9 5 0 14 12 20 28 6 15
13 36 18 47 7 21 12 37 17 58 1 6 5 17 8 22 3 6 6 26 8 45 2 19 7 42 11 51 5
8 5 21 0 29 -5 8 -6 19 -2 25 9 15 8 47 -1 69 -7 14 -6 16 4 11 7 -5 10 -4 6
2 -12 19 -16 63 -5 63 7 0 7 4 0 13 -6 7 -13 25 -16 40 -12 67 -43 140 -89
207 -35 51 -123 137 -149 146 -10 3 -18 9 -18 13 0 4 -16 13 -35 21 -19 8 -35
17 -35 22 0 4 -8 8 -18 8 -10 0 -22 4 -28 9 -9 10 -185 80 -214 86 -8 2 -56
14 -107 28 -51 14 -94 22 -97 19 -4 -3 -6 -1 -6 5 0 5 -6 10 -12 10 -33 1
-201 37 -238 50 -8 3 -20 7 -25 8 -46 10 -125 40 -125 47 0 5 -4 6 -10 3 -5
-3 -10 -2 -10 3 0 5 -11 15 -25 22 -29 15 -39 40 -40 95 -1 25 5 45 15 52 8 7
11 13 6 13 -13 0 45 50 74 62 14 7 34 12 45 13 11 0 25 3 30 7 6 3 51 4 100 2
88 -4 114 -7 165 -19 14 -3 36 -8 50 -11 14 -3 29 -9 35 -15 5 -5 15 -9 22 -9
19 0 173 -72 173 -81 0 -5 7 -5 17 -2 11 4 14 3 9 -5 -5 -8 0 -12 13 -12 12 0
21 -4 21 -8 0 -4 15 -16 33 -27 17 -10 37 -24 44 -29 34 -30 43 -36 51 -36 9
0 68 82 63 88 -1 2 6 11 16 20 11 9 35 40 53 67 19 28 38 55 42 60 29 36 78
105 78 110 0 3 5 11 10 18 47 55 61 74 66 90 3 9 10 17 16 17 10 0 -67 63
-122 100 -12 8 -28 20 -35 27 -22 21 -222 122 -229 116 -3 -4 -6 0 -6 7 0 7
-3 11 -6 8 -3 -4 -22 0 -42 9 -37 15 -67 24 -89 25 -7 1 -13 4 -13 8 0 3 -8 7
-17 8 -10 1 -25 3 -33 5 -8 2 -31 7 -50 10 -105 20 -111 21 -230 32 -118 11
-167 12 -181 5z"/>
<path d="M0 5193 c0 -662 3 -1203 8 -1204 4 -1 404 -2 890 -2 l882 -2 -2 305
-3 304 -540 2 c-297 0 -548 2 -558 3 -14 1 -17 10 -16 44 1 24 -1 49 -5 55 -4
7 -3 12 1 12 5 0 9 9 9 20 0 11 -4 20 -7 20 -4 0 -4 12 0 28 5 15 4 37 0 50
-5 13 -5 21 -1 18 4 -2 8 18 7 45 0 27 -3 49 -7 49 -4 0 -3 14 2 30 5 19 5 30
-1 30 -6 0 -7 6 -3 12 11 17 12 48 3 48 -4 0 -4 14 1 30 6 21 5 30 -3 30 -8 0
-8 3 0 11 8 8 8 20 3 35 -5 13 -6 24 -2 24 4 0 8 9 8 20 0 11 -4 20 -7 20 -4
0 -4 12 0 28 5 15 4 37 0 50 -5 13 -5 21 -1 18 4 -2 8 18 7 45 0 27 -3 49 -7
49 -4 0 -3 14 2 30 5 19 5 30 -1 30 -6 0 -7 6 -3 12 11 17 12 48 3 48 -4 0 -4
14 1 30 6 21 5 30 -3 30 -8 0 -8 3 0 11 8 8 8 20 3 35 -5 13 -6 24 -2 24 4 0
8 9 8 20 0 11 -4 20 -7 20 -4 0 -4 12 0 28 5 15 4 37 0 50 -5 13 -5 21 -1 18
4 -2 8 18 7 45 0 27 -2 49 -5 49 -3 0 -3 108 0 241 3 155 1 244 -5 249 -5 4
-155 7 -332 7 l-323 0 0 -1204z"/>
<path d="M6052 5192 l3 -1206 480 1 c408 0 548 4 680 17 11 1 25 4 30 8 6 3
18 4 28 3 9 -2 17 1 17 6 0 6 4 8 9 5 11 -7 103 14 186 42 33 11 63 18 67 16
5 -3 8 0 8 6 0 6 5 8 10 5 6 -3 10 -1 10 6 0 7 3 9 6 6 4 -3 16 0 28 8 11 8
28 15 37 15 10 0 19 3 21 8 2 4 30 20 63 37 33 16 62 32 65 35 3 3 30 22 60
42 30 20 66 47 80 60 13 12 40 35 58 51 19 15 32 27 29 27 -4 0 10 17 31 38
47 48 77 87 104 135 12 20 25 37 30 37 4 0 8 6 8 13 0 6 15 42 34 78 18 36 37
80 41 97 3 18 11 32 16 32 6 0 8 4 5 9 -4 5 -2 20 3 34 8 22 13 42 27 117 8
45 25 194 26 220 0 14 -3 36 -5 50 -3 14 -8 56 -12 95 -4 38 -8 72 -10 76 -2
3 -7 21 -10 40 -3 19 -15 63 -27 99 -12 36 -21 68 -20 73 1 4 -3 7 -9 7 -5 0
-8 4 -4 9 3 5 1 12 -5 16 -6 4 -8 11 -5 16 4 5 1 9 -4 9 -6 0 -11 7 -11 15 0
8 -5 15 -10 15 -6 0 -9 3 -8 8 2 12 -15 45 -49 93 -18 26 -33 49 -33 52 0 17
-160 178 -217 220 -24 17 -43 34 -43 39 0 4 -5 8 -11 8 -6 0 -23 8 -37 19 -27
18 -197 110 -207 111 -2 1 -21 8 -41 16 -20 9 -45 16 -55 17 -11 1 -19 4 -19
7 0 4 -6 7 -12 8 -15 1 -36 6 -58 15 -28 10 -105 27 -140 32 -19 2 -35 4 -35
5 0 2 -36 9 -85 16 -25 3 -287 7 -583 9 l-537 3 2 -1206z m1108 579 c6 -3 36
-9 67 -14 12 -2 26 -6 29 -10 4 -4 16 -7 26 -7 10 0 18 -4 18 -8 0 -4 10 -8
22 -9 11 -1 24 -6 27 -10 3 -4 19 -15 36 -23 32 -16 49 -28 102 -75 41 -35
115 -140 106 -149 -4 -3 -2 -6 4 -6 10 0 38 -73 49 -125 11 -51 20 -156 14
-175 0 -3 -3 -25 -5 -50 -6 -62 -10 -77 -35 -140 -27 -71 -95 -171 -131 -196
-16 -10 -29 -23 -29 -29 0 -16 -157 -101 -202 -109 -13 -3 -23 -5 -23 -6 0 -3
-38 -11 -75 -17 -64 -10 -442 -15 -437 -6 3 5 2 15 -3 23 -4 7 -5 23 0 35 5
12 5 28 0 35 -5 7 -4 24 1 37 5 12 5 23 1 23 -4 0 -7 11 -7 25 0 14 4 25 8 25
4 0 4 8 -2 17 -6 11 -6 24 0 35 6 10 5 19 -1 23 -6 4 -7 13 -1 24 5 9 6 23 1
31 -4 7 -4 24 1 37 5 13 6 22 1 20 -4 -3 -7 8 -7 24 0 16 3 29 7 29 4 0 3 11
-2 25 -6 15 -6 27 0 30 5 3 7 12 4 19 -8 22 -10 97 -2 102 4 3 3 15 -1 27 -5
12 -5 34 -1 48 4 15 4 32 0 39 -5 7 -4 24 1 37 5 12 5 23 1 23 -4 0 -7 11 -7
25 0 14 4 25 8 25 4 0 4 8 -2 17 -6 11 -6 24 0 35 6 10 5 19 -1 23 -7 4 -7 12
0 24 5 10 7 21 4 24 -9 9 -11 68 -2 73 4 3 4 13 -1 23 -6 10 -6 23 -1 31 5 8
5 19 1 25 -5 5 -5 19 -1 30 7 19 16 20 221 19 118 -1 216 -2 219 -3z"/>
</g>
</svg>
